<svg width="70" height="55" fill="none" xmlns="http://www.w3.org/2000/svg"><path d="M55.64 10.623h-.035v.36h.036v-.36ZM40.653 28.702l-1.228-1.89-1.03.657 1.034 1.593v.392H29.064v-3.958a1.7 1.7 0 0 0 .452-1.149 1.73 1.73 0 0 0-1.736-1.72h-.004c-.464 0-.9.18-1.227.503a1.693 1.693 0 0 0-.513 1.221c0 .44.173.84.452 1.149v1.637a11.245 11.245 0 0 0 5.136 4.599h9.238a11.229 11.229 0 0 0 3.328-2.274h-3.537v-.76Zm-12.505-3.987a.575.575 0 0 1-.166.112h-.416a.522.522 0 0 1 .202-1.004c.29 0 .529.236.529.524a.47.47 0 0 1-.15.368Zm15.234 15.142c-.84.32-1.7.584-2.576.788v2.03a1.68 1.68 0 0 0-.452 1.124v.056c.016.449.206.865.537 1.173.315.292.727.452 1.159.452h.052c.436.008.889-.164 1.22-.48.327-.316.512-.74.516-1.193v-.024a1.706 1.706 0 0 0-.452-1.1v-2.826h-.004Zm-.912 4.283a.474.474 0 0 1-.352.14h-.056a.486.486 0 0 1-.347-.128.49.49 0 0 1-.154-.345c0-.132.053-.256.15-.348a.492.492 0 0 1 .339-.14h.044a.504.504 0 0 1 .525.484.465.465 0 0 1-.15.337Zm-7.264-2.99a20.302 20.302 0 0 1-2.577-.3v1.809c-.29.308-.46.708-.464 1.14v.056a1.674 1.674 0 0 0 1.135 1.53v3.918a.3.3 0 0 1-.303.296H0v1.2h33.017a1.504 1.504 0 0 0 1.494-1.5V45.38a1.708 1.708 0 0 0 1.135-1.569v-.024a1.683 1.683 0 0 0-.44-1.084V41.15Zm-1.276 3.13h-.073a.486.486 0 0 1-.485-.477c0-.132.053-.256.15-.348a.492.492 0 0 1 .339-.14h.044a.5.5 0 0 1 .525.484.482.482 0 0 1-.5.48Z" fill="#001E42"/><path d="M1.277 43.571c4.538.004 9.073.004 13.611-.004.99 0 1.3-.304 1.3-1.277v-7.612h3.683v1.909c0 1.04.852 1.885 1.902 1.885h2.68v4.199a1.68 1.68 0 0 0-.451 1.124v.056c.016.449.206.865.537 1.173.315.292.726.452 1.159.452h.076a1.69 1.69 0 0 0 1.191-.48c.327-.316.513-.74.517-1.193v-.024a1.706 1.706 0 0 0-.452-1.1V38.94a19.885 19.885 0 0 1-3.973-2.733h-.893v-.841a20.019 20.019 0 0 1-2.293-2.75v.853h-3.678c0-6.492-.005-12.988-.013-19.48 0-.32-.117-.68-.29-.957-.364-.584-.836-1.1-1.192-1.685-.278-.456-.621-.64-1.15-.628-.84.016-9.994.024-10.591-.008-.76-.036-1.28.172-1.616.88-.21.437-.565.805-.807 1.229-.21.364-.505.764-.505 1.149-.032 9.454-.028 18.912-.024 28.37 0 .916.331 1.232 1.272 1.232Zm24.085-.112a.492.492 0 0 1 .34-.14h.044a.51.51 0 0 1 .525.484.47.47 0 0 1-.154.337.462.462 0 0 1-.35.14h-.057a.486.486 0 0 1-.348-.129.489.489 0 0 1-.153-.344.497.497 0 0 1 .153-.348ZM8.024 42.182a2.126 2.126 0 0 1-2.083-2.23c.052-1.152 1.041-2.036 2.24-1.992 1.192.04 2.108.984 2.084 2.149-.024 1.185-1.022 2.11-2.24 2.073Zm5.015-5.887c-1.655.008-3.315.004-4.97.004-1.632 0-3.263.004-4.898 0-.84-.004-.937-.116-.941-1.021-.004-.957.064-1.053.892-1.053 3.315-.008 6.626-.008 9.941 0 .828 0 .909.108.909 1.045 0 .909-.093 1.02-.933 1.025ZM2.234 16.235c.004-.897.258-1.17 1.134-1.174 3.146-.012 6.295-.012 9.44-.004.877.004 1.152.284 1.16 1.161.012 1.545.012 3.094 0 4.643-.008.913-.275 1.165-1.212 1.169-1.562.004-3.12 0-4.684 0v-.004c-1.562 0-3.12.004-4.683-.004-.877-.004-1.147-.272-1.155-1.149a444.435 444.435 0 0 1 0-4.639Zm.811 8.873c3.364.024 6.731.024 10.095 0 .811-.004.84.456.84 1.048 0 .585-.077.997-.832.985-1.684-.032-3.363-.012-5.047-.012-1.684 0-3.368-.024-5.047.012-.756.016-.84-.38-.832-.977.012-.576-.004-1.06.823-1.056Zm.077 4.53c3.315.024 6.63.004 9.941.008.82 0 .909.12.909 1.045 0 .909-.085 1.017-.933 1.02-1.655.009-3.315.005-4.97.005-1.656 0-3.316-.024-4.971.012-.852.02-.86-.477-.88-1.097-.02-.664.157-.997.904-.992ZM42.296 14.47c-1.938 0-3.876-.005-5.815.003-.654.004-.827.18-.835.825-.008.644-.004 1.292 0 1.937 0 .892.12 1.012 1.037 1.012h.614c.703 0 1.405.004 2.108.004h.024v3.455c-.23.084-.44.212-.618.388a1.693 1.693 0 0 0-.513 1.22c0 .85.63 1.554 1.446 1.694l1.03 1.58 1.025-.656-.779-1.197a1.693 1.693 0 0 0 .76-1.42 1.72 1.72 0 0 0-1.127-1.605v-3.46c.448 0 .892 0 1.34-.008.08 0 .154.004.218.012h4.797a11.01 11.01 0 0 0-2.047-3.782c-.888 0-1.777-.004-2.665-.004Zm-4.466 2.677a.81.81 0 0 1-.759-.793c0-.412.355-.768.771-.78a.774.774 0 0 1 .804.792.78.78 0 0 1-.816.78Zm2.584 6.54a.528.528 0 0 1-.9-.368.525.525 0 0 1 .525-.524c.29 0 .529.235.529.524a.487.487 0 0 1-.154.368Zm.247-6.544a.767.767 0 0 1-.796-.809.766.766 0 0 1 .792-.756.77.77 0 0 1 .775.78c0 .436-.34.78-.771.785Zm2.798.004c-.436.012-.832-.36-.832-.785-.004-.408.355-.768.775-.784a.79.79 0 0 1 .824.784.798.798 0 0 1-.767.785Zm-6.723-5.327c0 .9.246 1.148 1.167 1.148h5.552a11.286 11.286 0 0 0-2.645-1.633h-1.147c-.726 0-1.142-.232-1.308-.756-.529-.1-1.07-.16-1.615-.184-.004.476-.004.948-.004 1.424Zm1.804-9.779c.21-.248.542-.372 1.03-.376 1.902-.016 3.8-.004 5.702-.004v-.004c1.825 0 3.65-.004 5.48 0 1.158.004 1.558.388 1.558 1.517.004 2.217.004 4.43 0 6.648 0 .076-.008.144-.012.216a19.217 19.217 0 0 1 1.461 2.338c.04-.164.057-.368.057-.625V1.225C53.816.216 53.598 0 52.56 0H37.967c-1.009 0-1.231.212-1.231 1.185v.736a19.33 19.33 0 0 1 1.805.12Z" fill="#001E42"/><path d="M48.825 9.066c-6.94-6.88-18.23-6.88-25.172 0-6.94 6.88-6.936 18.07.005 24.951 6.161 6.108 15.747 6.788 22.68 2.05L62.764 54.03c1.47 1.457 4.062 1.248 5.79-.46 1.728-1.714 1.938-4.283.464-5.74L50.791 31.696c4.894-6.88 4.24-16.479-1.966-22.63Zm-3.19 21.785c-5.18 5.135-13.607 5.135-18.788 0-5.18-5.135-5.18-13.488 0-18.623 5.18-5.136 13.608-5.136 18.788 0 5.18 5.139 5.18 13.492 0 18.623Z" fill="#001E42"/></svg>