<?xml version="1.0" standalone="no"?>
<!DOCTYPE svg PUBLIC "-//W3C//DTD SVG 20010904//EN"
 "http://www.w3.org/TR/2001/REC-SVG-20010904/DTD/svg10.dtd">
<svg version="1.0" xmlns="http://www.w3.org/2000/svg"
 width="180.000000pt" height="180.000000pt" viewBox="0 0 180.000000 180.000000"
 preserveAspectRatio="xMidYMid meet">
<metadata>
Created by potrace 1.14, written by Peter Selinger 2001-2017
</metadata>
<g transform="translate(0.000000,180.000000) scale(0.100000,-0.100000)"
fill="#000000" stroke="none">
<path d="M733 1089 c-66 -32 -93 -115 -56 -169 22 -33 28 -36 96 -61 31 -12
57 -28 57 -35 0 -8 -4 -15 -10 -15 -5 -1 -16 -2 -22 -3 -7 -1 -29 6 -50 16
l-36 17 -36 -40 c-20 -23 -33 -46 -30 -51 13 -20 95 -49 146 -51 129 -4 215
105 155 195 -16 23 -41 40 -85 58 -35 14 -63 30 -63 35 0 17 48 17 74 1 22
-15 25 -14 62 24 45 46 40 60 -32 84 -62 21 -119 19 -170 -5z"/>
<path d="M0 903 l0 -198 62 0 c52 0 64 3 68 18 3 10 5 98 4 195 l0 177 -67 3
-67 3 0 -198z"/>
<path d="M174 1045 c0 -55 0 -55 30 -56 17 -1 39 -1 49 0 19 2 19 3 18 -175
l-1 -102 28 -3 c15 -2 45 -2 67 1 l40 5 0 135 1 135 44 1 c38 0 45 4 50 25 3
13 5 31 4 39 -1 8 -2 23 -3 33 -1 15 -16 17 -164 17 l-162 0 -1 -55z"/>
<path d="M1022 904 l3 -199 60 1 60 0 3 62 c2 39 7 62 15 63 57 4 86 10 118
25 88 39 92 175 6 221 -23 13 -63 18 -150 21 l-117 4 2 -198z m186 87 c15 -1
16 -37 0 -47 -6 -4 -22 -8 -35 -10 -20 -2 -23 2 -23 32 0 30 3 33 23 30 12 -3
28 -5 35 -5z"/>
<path d="M1400 903 l0 -198 62 1 63 1 3 78 3 78 46 -69 c25 -38 51 -73 58 -79
10 -8 74 -11 147 -6 13 1 -1 26 -57 101 -41 55 -75 103 -75 107 0 5 18 30 41
57 22 27 54 67 70 88 l31 38 -79 0 -78 0 -35 -51 c-72 -102 -70 -102 -70 -21
l0 72 -65 0 -65 0 0 -197z"/>
<path d="M486 912 c-12 -3 -16 -15 -16 -48 0 -47 -1 -46 65 -46 95 0 91 -2 92
46 l2 44 -64 4 c-34 2 -70 2 -79 0z"/>
</g>
</svg>
