<svg width="70" height="55" viewBox="0 0 70 55" fill="none" xmlns="http://www.w3.org/2000/svg">
<path d="M55.6409 10.6226H55.6046V10.9829H55.6409V10.6226Z" fill="#001E42"/>
<path d="M40.6526 28.7019L39.4251 26.8127L38.3954 27.4691L39.4291 29.0621V29.4543H29.0641V25.4958C29.3508 25.1796 29.5163 24.7794 29.5163 24.3471C29.5163 23.3985 28.737 22.6261 27.7801 22.6261C27.7801 22.6261 27.7801 22.6261 27.776 22.6261C27.3117 22.6261 26.8756 22.8062 26.5485 23.1304C26.2174 23.4546 26.0357 23.8868 26.0357 24.3511C26.0357 24.7914 26.2094 25.1917 26.488 25.4998V27.1369C26.9765 27.9694 27.5701 28.7459 28.2767 29.4463C29.2579 30.4189 30.3925 31.1874 31.624 31.7357H40.8625C42.086 31.1914 43.2125 30.4269 44.1897 29.4623H40.6526V28.7019ZM28.1475 24.7154C28.0991 24.7634 28.0425 24.7994 27.982 24.8274H27.5661C27.3763 24.7474 27.243 24.5633 27.243 24.3471C27.243 24.207 27.2996 24.075 27.3965 23.9749C27.4974 23.8748 27.6307 23.8228 27.768 23.8228C28.0587 23.8228 28.2969 24.0589 28.2969 24.3471C28.305 24.4872 28.2484 24.6193 28.1475 24.7154Z" fill="#001E42"/>
<path d="M43.3821 39.8569C42.5423 40.1771 41.6822 40.4413 40.806 40.6454V42.6747C40.5234 42.9829 40.3578 43.3751 40.3538 43.7994V43.8554C40.3699 44.3037 40.5597 44.72 40.8908 45.0281C41.2058 45.3203 41.6176 45.4804 42.0497 45.4804C42.0618 45.4804 42.0779 45.4804 42.09 45.4804H42.1022C42.5382 45.4884 42.9905 45.3163 43.3216 45.0001C43.6486 44.6839 43.8344 44.2597 43.8384 43.8074V43.7834C43.8263 43.3591 43.6527 42.9749 43.3862 42.6827V39.8569H43.3821ZM42.4696 44.1396C42.3727 44.2316 42.2475 44.2877 42.1183 44.2797H42.0618C41.9326 44.2837 41.8114 44.2397 41.7145 44.1516C41.6217 44.0635 41.5651 43.9435 41.5611 43.8074C41.5611 43.6753 41.6136 43.5512 41.7105 43.4592C41.7993 43.3711 41.9164 43.3231 42.0497 43.3191H42.0941C42.3848 43.3111 42.6028 43.5272 42.619 43.8034C42.619 43.9315 42.5625 44.0515 42.4696 44.1396Z" fill="#001E42"/>
<path d="M35.2056 41.1497C34.3334 41.1056 33.4734 41.0016 32.6295 40.8495V42.6586C32.3388 42.9668 32.1692 43.367 32.1651 43.7993V43.8553C32.1813 44.3036 32.3711 44.7199 32.7022 45.0281C32.8758 45.1882 33.0817 45.3083 33.2997 45.3843V49.3028C33.2997 49.4629 33.1705 49.5949 32.9969 49.5989H0V50.7997H33.0171C33.8489 50.7917 34.5151 50.1153 34.5111 49.2987V45.3803C35.1571 45.1482 35.6336 44.5358 35.6457 43.8113V43.7873C35.6336 43.367 35.468 42.9948 35.2056 42.7026V41.1497ZM33.9296 44.2796H33.8731C33.8691 44.2796 33.861 44.2796 33.857 44.2796C33.5985 44.2796 33.3805 44.0755 33.3724 43.8033C33.3724 43.6712 33.4249 43.5472 33.5218 43.4551C33.6107 43.367 33.7278 43.319 33.861 43.315H33.9054C34.2042 43.307 34.4142 43.5231 34.4303 43.7993C34.4223 44.0715 34.2042 44.2956 33.9296 44.2796Z" fill="#001E42"/>
<path d="M1.27688 43.5712C5.81537 43.5752 10.3498 43.5752 14.8883 43.5672C15.8776 43.5672 16.1885 43.263 16.1885 42.2904C16.1885 39.7528 16.1885 37.2152 16.1885 34.6776H19.871V36.5868C19.871 37.6275 20.7229 38.472 21.7728 38.472H24.4539V42.6706C24.1712 42.9788 24.0057 43.371 24.0016 43.7953V43.8513C24.0178 44.2996 24.2076 44.7159 24.5387 45.0241C24.8536 45.3163 25.2655 45.4764 25.6975 45.4764C25.7096 45.4764 25.7258 45.4764 25.7379 45.4764H25.75C25.7581 45.4764 25.7661 45.4764 25.7742 45.4764C26.2224 45.4764 26.6464 45.3083 26.9654 44.9961C27.2924 44.6799 27.4782 44.2556 27.4822 43.8033V43.7793C27.4701 43.355 27.2965 42.9708 27.03 42.6786V38.9403C25.6087 38.1998 24.2762 37.2832 23.0568 36.2066H22.1644V35.366C21.3084 34.5095 20.5453 33.5889 19.871 32.6163V33.4689H16.1925C16.1925 26.9768 16.1885 20.4807 16.1804 13.9887C16.1804 13.6685 16.0633 13.3083 15.8897 13.0321C15.5263 12.4477 15.0539 11.9314 14.6985 11.347C14.4199 10.8908 14.0767 10.7066 13.5478 10.7186C12.7079 10.7347 3.5542 10.7427 2.95661 10.7106C2.1975 10.6746 1.67662 10.8827 1.34149 11.5912C1.13152 12.0275 0.776195 12.3957 0.533927 12.82C0.323961 13.1842 0.0292017 13.5844 0.0292017 13.9687C-0.00310068 23.4226 0.000937121 32.8805 0.00497492 42.3384C0.00497492 43.255 0.336075 43.5712 1.27688 43.5712ZM25.3624 43.4591C25.4512 43.371 25.5683 43.323 25.7015 43.319H25.746C26.0286 43.311 26.2547 43.5271 26.2709 43.8033C26.2668 43.9314 26.2143 44.0515 26.1174 44.1395C26.0205 44.2316 25.9034 44.2876 25.7661 44.2796H25.7096C25.5844 44.2836 25.4552 44.2396 25.3624 44.1515C25.2695 44.0635 25.213 43.9434 25.2089 43.8073C25.213 43.6752 25.2655 43.5512 25.3624 43.4591ZM8.02405 42.1823C6.81271 42.1463 5.88401 41.1537 5.94054 39.9529C5.99303 38.8002 6.9823 37.9156 8.18152 37.9597C9.37267 37.9997 10.2893 38.9443 10.265 40.109C10.2408 41.2937 9.24346 42.2183 8.02405 42.1823ZM13.039 36.2946C11.3835 36.3026 9.72396 36.2986 8.06846 36.2986C6.43719 36.2986 4.80592 36.3026 3.17061 36.2986C2.33075 36.2946 2.23384 36.1826 2.2298 35.278C2.22577 34.3214 2.29441 34.2253 3.12216 34.2253C6.43719 34.2173 9.74819 34.2173 13.0632 34.2253C13.891 34.2253 13.9717 34.3334 13.9717 35.27C13.9717 36.1786 13.8789 36.2906 13.039 36.2946ZM2.23384 16.2341C2.23788 15.3375 2.49226 15.0654 3.36846 15.0614C6.51391 15.0494 9.6634 15.0494 12.8088 15.0574C13.685 15.0614 13.9596 15.3415 13.9677 16.2181C13.9798 17.763 13.9798 19.312 13.9677 20.861C13.9596 21.7736 13.6931 22.0257 12.7564 22.0297C11.1937 22.0337 9.63513 22.0297 8.0725 22.0297V22.0257C6.50987 22.0257 4.95128 22.0297 3.38865 22.0217C2.51245 22.0177 2.24192 21.7495 2.23384 20.873C2.22577 19.328 2.22577 17.7791 2.23384 16.2341ZM3.04544 25.1076C6.40893 25.1317 9.77645 25.1317 13.1399 25.1076C13.9515 25.1036 13.9798 25.5639 13.9798 26.1563C13.9798 26.7407 13.9031 27.1529 13.148 27.1409C11.4643 27.1089 9.78453 27.1289 8.10077 27.1289C6.417 27.1289 4.73324 27.1049 3.05351 27.1409C2.29845 27.1569 2.21365 26.7607 2.22173 26.1643C2.23384 25.5879 2.21769 25.1036 3.04544 25.1076ZM3.12216 29.6385C6.43719 29.6625 9.75223 29.6425 13.0632 29.6465C13.8829 29.6465 13.9717 29.7665 13.9717 30.6911C13.9717 31.5997 13.8869 31.7078 13.039 31.7118C11.3835 31.7198 9.72396 31.7158 8.06846 31.7158C6.41297 31.7158 4.75343 31.6917 3.09793 31.7278C2.24595 31.7478 2.23788 31.2515 2.21769 30.6311C2.1975 29.9667 2.37516 29.6345 3.12216 29.6385Z" fill="#001E42"/>
<path d="M42.296 14.4691C40.3578 14.4691 38.4197 14.4651 36.4815 14.4731C35.8274 14.4771 35.6538 14.6532 35.6457 15.2976C35.6376 15.942 35.6417 16.5904 35.6457 17.2348C35.6457 18.1274 35.7668 18.2474 36.6834 18.2474C36.8894 18.2474 37.0953 18.2474 37.2972 18.2474C37.9998 18.2474 38.7023 18.2514 39.4049 18.2514H39.4291V21.7056C39.199 21.7897 38.989 21.9177 38.8114 22.0938C38.4803 22.418 38.2985 22.8503 38.2985 23.3146C38.2985 24.1631 38.9284 24.8676 39.7441 25.0077L40.7737 26.5887L41.7993 25.9322L41.02 24.7355C41.1048 24.6755 41.1896 24.6114 41.2663 24.5354C41.5974 24.2112 41.7791 23.7789 41.7791 23.3146C41.7791 22.5781 41.3067 21.9538 40.6526 21.7096V18.2514C41.1008 18.2514 41.5449 18.2514 41.9931 18.2434C42.0739 18.2434 42.1466 18.2474 42.2112 18.2554H46.4912C46.6649 18.2554 46.8345 18.2554 47.0081 18.2554C46.5841 16.8826 45.8936 15.5978 44.9609 14.4731C44.0726 14.4731 43.1843 14.4691 42.296 14.4691ZM37.8302 17.1467C37.4183 17.1307 37.0711 16.7665 37.0711 16.3543C37.0711 15.942 37.4264 15.5858 37.8423 15.5738C38.2945 15.5618 38.6498 15.914 38.6458 16.3663C38.6418 16.8145 38.2784 17.1668 37.8302 17.1467ZM40.4144 23.6868C40.3134 23.7869 40.1802 23.8389 40.0429 23.8389C39.7522 23.8389 39.5139 23.6028 39.5139 23.3186C39.5139 23.1785 39.5705 23.0464 39.6674 22.9464C39.7683 22.8463 39.9016 22.7943 40.0388 22.7943C40.3296 22.7943 40.5678 23.0304 40.5678 23.3186C40.5718 23.4587 40.5153 23.5908 40.4144 23.6868ZM40.6607 17.1427C40.2004 17.1508 39.8531 16.7985 39.8652 16.3342C39.8773 15.898 40.2165 15.5738 40.6566 15.5778C41.0967 15.5818 41.4319 15.922 41.4319 16.3583C41.4319 16.7945 41.0927 17.1387 40.6607 17.1427ZM43.4589 17.1467C43.0228 17.1588 42.6271 16.7865 42.6271 16.3623C42.623 15.954 42.9824 15.5938 43.4023 15.5778C43.8546 15.5618 44.226 15.918 44.226 16.3623C44.222 16.7825 43.8788 17.1347 43.4589 17.1467Z" fill="#001E42"/>
<path d="M36.7359 11.8193C36.7359 12.7199 36.9822 12.9681 37.9028 12.9681C39.7522 12.9681 41.6015 12.9681 43.4548 12.9681C42.6473 12.2996 41.7549 11.7513 40.8101 11.335C40.4265 11.335 40.0469 11.335 39.6633 11.335C38.9365 11.335 38.5206 11.1029 38.3551 10.5786C37.8261 10.4785 37.2851 10.4185 36.74 10.3945C36.7359 10.8708 36.7359 11.3431 36.7359 11.8193Z" fill="#001E42"/>
<path d="M38.5408 2.04128C38.7508 1.79312 39.0819 1.66904 39.5704 1.66504C41.4723 1.64903 43.37 1.66104 45.2718 1.66104V1.65704C47.0969 1.65704 48.922 1.65303 50.7511 1.65704C51.91 1.66104 52.3097 2.04528 52.3097 3.17398C52.3138 5.39137 52.3138 7.60475 52.3097 9.82214C52.3097 9.89819 52.3016 9.96623 52.2976 10.0383C52.8387 10.7827 53.3313 11.5632 53.7593 12.3757C53.7997 12.2116 53.8158 12.0075 53.8158 11.7513C53.8158 8.24115 53.8158 4.73496 53.8158 1.22477C53.8158 0.216135 53.5978 0 52.5601 0C50.1374 0 47.7147 0 45.292 0C42.8491 0 40.4103 0 37.9674 0C36.958 0 36.7359 0.212133 36.7359 1.18474C36.7359 1.42889 36.7359 1.67305 36.7359 1.9212C37.3416 1.93321 37.9432 1.97323 38.5408 2.04128Z" fill="#001E42"/>
<path d="M48.8251 9.06561C41.8841 2.18531 30.5944 2.18531 23.6535 9.06561C16.7125 15.9459 16.7165 27.1369 23.6575 34.0172C29.8192 40.125 39.4049 40.8054 46.3378 36.0665L62.7636 54.0297C64.2334 55.4866 66.8256 55.2785 68.5538 53.5694C70.282 51.8563 70.4919 49.2867 69.0181 47.8298L50.7915 31.6957C55.6853 24.8154 55.0312 15.2175 48.8251 9.06561ZM45.6352 30.8512C40.4547 35.9864 32.0279 35.9864 26.8474 30.8512C21.6669 25.716 21.6669 17.3628 26.8474 12.2276C32.0279 7.09237 40.4547 7.09237 45.6352 12.2276C50.8157 17.3668 50.8157 25.72 45.6352 30.8512Z" fill="#001E42"/>
</svg>
